<svg xmlns="http://www.w3.org/2000/svg" width="1280" height="720" viewBox="0 0 1280 720">
  <defs>
    <linearGradient id="flowGlow" x1="0%" y1="0%" x2="100%" y2="100%">
      <stop offset="0%" stop-color="#4EC5F1" stop-opacity="0.18" />
      <stop offset="54%" stop-color="#73F0B8" stop-opacity="0.09" />
      <stop offset="100%" stop-color="#F7B955" stop-opacity="0.08" />
    </linearGradient>
    <filter id="softAccent" x="-20%" y="-20%" width="140%" height="140%">
      <feGaussianBlur in="SourceAlpha" stdDeviation="4" result="blur" />
      <feFlood flood-color="#73F0B8" flood-opacity="0.28" result="color" />
      <feComposite in="color" in2="blur" operator="in" result="glow" />
      <feMerge>
        <feMergeNode in="glow" />
        <feMergeNode in="SourceGraphic" />
      </feMerge>
    </filter>
  </defs>
  <g id="background">
    <rect x="0" y="0" width="1280" height="720" fill="#0B0F14" />
    <rect x="0" y="0" width="1280" height="720" fill="url(#flowGlow)" />
    <path d="M56 110H1224 M56 614H1224" stroke="#223143" stroke-width="1.5" stroke-opacity="0.82" />
    <path d="M128 160V574 M416 160V574 M704 160V574 M992 160V574" stroke="#223143" stroke-width="1" stroke-opacity="0.28" />
  </g>
  <g id="header">
    <text x="56" y="58" font-family="Consolas, 'Courier New', monospace" font-size="14" fill="#A8B6C6" letter-spacing="2">LIVE RUN SEQUENCE</text>
    <text x="1224" y="58" text-anchor="end" font-family="Consolas, 'Courier New', monospace" font-size="14" fill="#667789">03 / 06</text>
    <text x="56" y="124" font-family="'Aptos Display', 'Microsoft YaHei', Arial, sans-serif" font-size="40" font-weight="800" fill="#EAF1F7">The demo is one recoverable product loop.</text>
  </g>
  <g id="flow-line">
    <path d="M162 352H354 M386 352H578 M610 352H802 M834 352H1026" stroke="#4EC5F1" stroke-width="5" stroke-linecap="round" />
    <circle cx="370" cy="352" r="18" fill="#0B0F14" stroke="#4EC5F1" stroke-width="3" />
    
  <g transform="translate(358, 340)" fill="none" stroke="#4EC5F1" stroke-width="2">
    <path d="M5 12l14 0" />
    <path d="M13 18l6 -6" />
    <path d="M13 6l6 6" />
  </g>
    <circle cx="594" cy="352" r="18" fill="#0B0F14" stroke="#4EC5F1" stroke-width="3" />
    
  <g transform="translate(582, 340)" fill="none" stroke="#4EC5F1" stroke-width="2">
    <path d="M5 12l14 0" />
    <path d="M13 18l6 -6" />
    <path d="M13 6l6 6" />
  </g>
    <circle cx="818" cy="352" r="18" fill="#0B0F14" stroke="#4EC5F1" stroke-width="3" />
    
  <g transform="translate(806, 340)" fill="none" stroke="#4EC5F1" stroke-width="2">
    <path d="M5 12l14 0" />
    <path d="M13 18l6 -6" />
    <path d="M13 6l6 6" />
  </g>
  </g>
  <g id="step-kill">
    <path fill="#121A24" stroke="#2B3A4B" stroke-width="2" d="M82,198 H306 A10,10 0 0 1 316,208 V474 A10,10 0 0 1 306,484 H82 A10,10 0 0 1 72,474 V208 A10,10 0 0 1 82,198 Z" />
    <circle cx="132" cy="258" r="34" fill="#F7B955" fill-opacity="0.12" stroke="#F7B955" stroke-width="2" />
    
  <g transform="translate(112, 238) scale(1.66667)" fill="none" stroke="#F7B955" stroke-width="2">
    <path d="M12 4c4.418 0 8 3.358 8 7.5c0 1.901 -.755 3.637 -2 4.96l0 2.54a1 1 0 0 1 -1 1h-10a1 1 0 0 1 -1 -1v-2.54c-1.245 -1.322 -2 -3.058 -2 -4.96c0 -4.142 3.582 -7.5 8 -7.5" />
    <path d="M10 17v3" />
    <path d="M14 17v3" />
    <path d="M8 11a1 1 0 1 0 2 0a1 1 0 1 0 -2 0" />
    <path d="M14 11a1 1 0 1 0 2 0a1 1 0 1 0 -2 0" />
  </g>
    <text x="104" y="326" font-family="Consolas, 'Courier New', monospace" font-size="13" fill="#667789">01 ACTION</text>
    <text x="104" y="360" font-family="'Aptos Display', 'Microsoft YaHei', Arial, sans-serif" font-size="27" font-weight="800" fill="#EAF1F7">Kill Agent</text>
    <text font-family="Aptos, 'Microsoft YaHei', Arial, sans-serif" fill="#A8B6C6" font-size="17" x="104" y="402">The predecessor stops.</text><text font-family="Aptos, 'Microsoft YaHei', Arial, sans-serif" fill="#A8B6C6" font-size="17" x="104" y="428">The judge chooses what</text><text font-family="Aptos, 'Microsoft YaHei', Arial, sans-serif" fill="#A8B6C6" font-size="17" x="104" y="454">can survive.</text></g>
  <g id="step-write">
    <path fill="#121A24" stroke="#4EC5F1" stroke-width="2" d="M370,198 H594 A10,10 0 0 1 604,208 V474 A10,10 0 0 1 594,484 H370 A10,10 0 0 1 360,474 V208 A10,10 0 0 1 370,198 Z" />
    <circle cx="420" cy="258" r="34" fill="#4EC5F1" fill-opacity="0.12" stroke="#4EC5F1" stroke-width="2" />
    
  <g transform="translate(400, 238) scale(1.66667)" fill="none" stroke="#4EC5F1" stroke-width="2">
    <path d="M6.657 18c-2.572 0 -4.657 -2.007 -4.657 -4.483c0 -2.475 2.085 -4.482 4.657 -4.482c.393 -1.762 1.794 -3.2 3.675 -3.773c1.88 -.572 3.956 -.193 5.444 1c1.488 1.19 2.162 3.007 1.77 4.769h.99c1.913 0 3.464 1.56 3.464 3.486c0 1.927 -1.551 3.487 -3.465 3.487h-11.878" />
  </g>
    <text x="392" y="326" font-family="Consolas, 'Courier New', monospace" font-size="13" fill="#667789">02 WALRUS WRITE</text>
    <text x="392" y="360" font-family="'Aptos Display', 'Microsoft YaHei', Arial, sans-serif" font-size="27" font-weight="800" fill="#EAF1F7">Store will</text>
    <text font-family="Aptos, 'Microsoft YaHei', Arial, sans-serif" fill="#A8B6C6" font-size="17" x="392" y="402">`/api/memory-wills` writes</text><text font-family="Aptos, 'Microsoft YaHei', Arial, sans-serif" fill="#A8B6C6" font-size="17" x="392" y="428">the scoped JSON before</text><text font-family="Aptos, 'Microsoft YaHei', Arial, sans-serif" fill="#A8B6C6" font-size="17" x="392" y="454">restore is enabled.</text></g>
  <g id="step-restore">
    <path fill="#121A24" stroke="#73F0B8" stroke-width="2" filter="url(#softAccent)" d="M658,198 H882 A10,10 0 0 1 892,208 V474 A10,10 0 0 1 882,484 H658 A10,10 0 0 1 648,474 V208 A10,10 0 0 1 658,198 Z" />
    <circle cx="708" cy="258" r="34" fill="#73F0B8" fill-opacity="0.12" stroke="#73F0B8" stroke-width="2" />
    
  <g transform="translate(688, 238) scale(1.66667)" fill="none" stroke="#73F0B8" stroke-width="2">
    <path d="M3 19a2 2 0 1 0 4 0a2 2 0 0 0 -4 0" />
    <path d="M19 7a2 2 0 1 0 0 -4a2 2 0 0 0 0 4" />
    <path d="M11 19h5.5a3.5 3.5 0 0 0 0 -7h-8a3.5 3.5 0 0 1 0 -7h4.5" />
  </g>
    <text x="680" y="326" font-family="Consolas, 'Courier New', monospace" font-size="13" fill="#667789">03 WALRUS READ</text>
    <text x="680" y="360" font-family="'Aptos Display', 'Microsoft YaHei', Arial, sans-serif" font-size="27" font-weight="800" fill="#EAF1F7">Open successor</text>
    <text font-family="Aptos, 'Microsoft YaHei', Arial, sans-serif" fill="#A8B6C6" font-size="17" x="680" y="402">A cold successor reads</text><text font-family="Aptos, 'Microsoft YaHei', Arial, sans-serif" fill="#A8B6C6" font-size="17" x="680" y="428">the Walrus blob before</text><text font-family="Aptos, 'Microsoft YaHei', Arial, sans-serif" fill="#A8B6C6" font-size="17" x="680" y="454">producing output.</text></g>
  <g id="step-inspect">
    <path fill="#121A24" stroke="#2B3A4B" stroke-width="2" d="M946,198 H1170 A10,10 0 0 1 1180,208 V474 A10,10 0 0 1 1170,484 H946 A10,10 0 0 1 936,474 V208 A10,10 0 0 1 946,198 Z" />
    <circle cx="996" cy="258" r="34" fill="#4EC5F1" fill-opacity="0.12" stroke="#4EC5F1" stroke-width="2" />
    
  <g transform="translate(976, 238) scale(1.66667)" fill="none" stroke="#4EC5F1" stroke-width="2">
    <path d="M14 3v4a1 1 0 0 0 1 1h4" />
    <path d="M5 8v-3a2 2 0 0 1 2 -2h7l5 5v11a2 2 0 0 1 -2 2h-5" />
    <path d="M3 14a3 3 0 1 0 6 0a3 3 0 1 0 -6 0" />
    <path d="M4.5 17l-1.5 5l3 -1.5l3 1.5l-1.5 -5" />
  </g>
    <text x="968" y="326" font-family="Consolas, 'Courier New', monospace" font-size="13" fill="#667789">04 INSPECT</text>
    <text x="968" y="360" font-family="'Aptos Display', 'Microsoft YaHei', Arial, sans-serif" font-size="27" font-weight="800" fill="#EAF1F7">Read proof</text>
    <text font-family="Aptos, 'Microsoft YaHei', Arial, sans-serif" fill="#A8B6C6" font-size="17" x="968" y="402">Receipt exposes object id,</text><text font-family="Aptos, 'Microsoft YaHei', Arial, sans-serif" fill="#A8B6C6" font-size="17" x="968" y="428">policy hash, and redaction</text><text font-family="Aptos, 'Microsoft YaHei', Arial, sans-serif" fill="#A8B6C6" font-size="17" x="968" y="454">hash for review.</text></g>
  <g id="bottom-proof">
    <path fill="#071018" stroke="#2B3A4B" stroke-width="1.5" d="M92,552 H1170 A10,10 0 0 1 1180,562 V600 A10,10 0 0 1 1170,610 H92 A10,10 0 0 1 82,600 V562 A10,10 0 0 1 92,552 Z" />
    
  <g transform="translate(112, 568) scale(1.08333)" fill="none" stroke="#73F0B8" stroke-width="2">
    <path d="M5 7l5 5l-5 5" />
    <path d="M12 19l7 0" />
  </g>
    <text x="152" y="576" font-family="Consolas, 'Courier New', monospace" font-size="14" fill="#73F0B8">verified commands</text>
    <text x="152" y="600" font-family="Aptos, 'Microsoft YaHei', Arial, sans-serif" font-size="17" fill="#A8B6C6">`pnpm build` · `pnpm typecheck` · `pnpm sui:build` · `pnpm sui:test` all pass sequentially.</text>
  </g>
</svg>