<svg xmlns="http://www.w3.org/2000/svg" width="1280" height="720" viewBox="0 0 1280 720">
  <defs>
    <linearGradient id="gateBeam" x1="0%" y1="50%" x2="100%" y2="50%">
      <stop offset="0%" stop-color="#4EC5F1" stop-opacity="0" />
      <stop offset="43%" stop-color="#4EC5F1" stop-opacity="0.28" />
      <stop offset="57%" stop-color="#73F0B8" stop-opacity="0.26" />
      <stop offset="100%" stop-color="#73F0B8" stop-opacity="0" />
    </linearGradient>
    <radialGradient id="gateGlow" cx="50%" cy="46%" r="42%">
      <stop offset="0%" stop-color="#73F0B8" stop-opacity="0.18" />
      <stop offset="100%" stop-color="#73F0B8" stop-opacity="0" />
    </radialGradient>
    <filter id="gateFilter" x="-25%" y="-25%" width="150%" height="150%">
      <feGaussianBlur in="SourceAlpha" stdDeviation="6" result="blur" />
      <feFlood flood-color="#4EC5F1" flood-opacity="0.36" result="color" />
      <feComposite in="color" in2="blur" operator="in" result="glow" />
      <feMerge>
        <feMergeNode in="glow" />
        <feMergeNode in="SourceGraphic" />
      </feMerge>
    </filter>
  </defs>
  <g id="background">
    <rect x="0" y="0" width="1280" height="720" fill="#0B0F14" />
    <rect x="0" y="0" width="1280" height="720" fill="url(#gateGlow)" />
    <rect x="0" y="300" width="1280" height="144" fill="url(#gateBeam)" />
    <path d="M56 110H1224 M56 604H1224" stroke="#223143" stroke-width="1.5" stroke-opacity="0.82" />
  </g>
  <g id="header">
    <text x="56" y="58" font-family="Consolas, 'Courier New', monospace" font-size="14" fill="#A8B6C6" letter-spacing="2">LOAD-BEARING WALRUS</text>
    <text x="1224" y="58" text-anchor="end" font-family="Consolas, 'Courier New', monospace" font-size="14" fill="#667789">04 / 06</text>
    <text x="56" y="124" font-family="'Aptos Display', 'Microsoft YaHei', Arial, sans-serif" font-size="40" font-weight="800" fill="#EAF1F7">Walrus is the gate between death and succession.</text>
  </g>
  <g id="pipeline">
    <path fill="#121A24" stroke="#2B3A4B" stroke-width="2" d="M70,222 H236 A10,10 0 0 1 246,232 V468 A10,10 0 0 1 236,478 H70 A10,10 0 0 1 60,468 V232 A10,10 0 0 1 70,222 Z" />
    
  <g transform="translate(96, 252) scale(1.41667)" fill="none" stroke="#F7B955" stroke-width="2">
    <path d="M12 4c4.418 0 8 3.358 8 7.5c0 1.901 -.755 3.637 -2 4.96l0 2.54a1 1 0 0 1 -1 1h-10a1 1 0 0 1 -1 -1v-2.54c-1.245 -1.322 -2 -3.058 -2 -4.96c0 -4.142 3.582 -7.5 8 -7.5" />
    <path d="M10 17v3" />
    <path d="M14 17v3" />
    <path d="M8 11a1 1 0 1 0 2 0a1 1 0 1 0 -2 0" />
    <path d="M14 11a1 1 0 1 0 2 0a1 1 0 1 0 -2 0" />
  </g>
    <text x="96" y="326" font-family="'Aptos Display', 'Microsoft YaHei', Arial, sans-serif" font-size="25" font-weight="800" fill="#EAF1F7">Killed</text>
    <text x="96" y="356" font-family="'Aptos Display', 'Microsoft YaHei', Arial, sans-serif" font-size="25" font-weight="800" fill="#EAF1F7">agent</text>
    <text font-family="Aptos, 'Microsoft YaHei', Arial, sans-serif" fill="#A8B6C6" font-size="16" x="96" y="404">Local context</text><text font-family="Aptos, 'Microsoft YaHei', Arial, sans-serif" fill="#A8B6C6" font-size="16" x="96" y="428">is no longer</text><text font-family="Aptos, 'Microsoft YaHei', Arial, sans-serif" fill="#A8B6C6" font-size="16" x="96" y="452">the source.</text><path d="M250 350H324" stroke="#4EC5F1" stroke-width="4" stroke-linecap="round" />
    
  <g transform="translate(294, 336) scale(1.16667)" fill="none" stroke="#4EC5F1" stroke-width="2">
    <path d="M5 12l14 0" />
    <path d="M13 18l6 -6" />
    <path d="M13 6l6 6" />
  </g>

    <path fill="#121A24" stroke="#4EC5F1" stroke-width="2" d="M342,222 H520 A10,10 0 0 1 530,232 V468 A10,10 0 0 1 520,478 H342 A10,10 0 0 1 332,468 V232 A10,10 0 0 1 342,222 Z" />
    
  <g transform="translate(368, 252) scale(1.41667)" fill="none" stroke="#4EC5F1" stroke-width="2">
    <path d="M3 7a3 3 0 0 1 3 -3h12a3 3 0 0 1 3 3v2a3 3 0 0 1 -3 3h-12a3 3 0 0 1 -3 -3" />
    <path d="M3 15a3 3 0 0 1 3 -3h12a3 3 0 0 1 3 3v2a3 3 0 0 1 -3 3h-12a3 3 0 0 1 -3 -3l0 -2" />
    <path d="M7 8l0 .01" />
    <path d="M7 16l0 .01" />
  </g>
    <text x="368" y="326" font-family="'Aptos Display', 'Microsoft YaHei', Arial, sans-serif" font-size="25" font-weight="800" fill="#EAF1F7">Publisher</text>
    <text x="368" y="356" font-family="'Aptos Display', 'Microsoft YaHei', Arial, sans-serif" font-size="25" font-weight="800" fill="#EAF1F7">write</text>
    <text font-family="Consolas, 'Courier New', monospace" fill="#A8B6C6" font-size="14" x="368" y="404">POST</text><text font-family="Consolas, 'Courier New', monospace" fill="#A8B6C6" font-size="14" x="368" y="428">/api/memory-wills</text><text font-family="Consolas, 'Courier New', monospace" fill="#A8B6C6" font-size="14" x="368" y="452">before restore</text><path d="M534 350H604" stroke="#4EC5F1" stroke-width="4" stroke-linecap="round" />
    
  <g transform="translate(574, 336) scale(1.16667)" fill="none" stroke="#4EC5F1" stroke-width="2">
    <path d="M5 12l14 0" />
    <path d="M13 18l6 -6" />
    <path d="M13 6l6 6" />
  </g>

    <path fill="#071018" stroke="#73F0B8" stroke-width="3" filter="url(#gateFilter)" d="M624,184 H852 A12,12 0 0 1 864,196 V504 A12,12 0 0 1 852,516 H624 A12,12 0 0 1 612,504 V196 A12,12 0 0 1 624,184 Z" />
    
  <g transform="translate(708, 228) scale(2.33333)" fill="none" stroke="#73F0B8" stroke-width="2">
    <path d="M4 6a8 3 0 1 0 16 0a8 3 0 1 0 -16 0" />
    <path d="M4 6v6a8 3 0 0 0 16 0v-6" />
    <path d="M4 12v6a8 3 0 0 0 16 0v-6" />
  </g>
    <text x="738" y="326" text-anchor="middle" font-family="'Aptos Display', 'Microsoft YaHei', Arial, sans-serif" font-size="34" font-weight="800" fill="#EAF1F7">Walrus</text>
    <text x="738" y="364" text-anchor="middle" font-family="'Aptos Display', 'Microsoft YaHei', Arial, sans-serif" font-size="28" font-weight="800" fill="#73F0B8">certified blob</text>
    <text font-family="Aptos, 'Microsoft YaHei', Arial, sans-serif" fill="#A8B6C6" text-anchor="middle" font-size="17" x="738" y="418">object id</text><text font-family="Aptos, 'Microsoft YaHei', Arial, sans-serif" fill="#A8B6C6" text-anchor="middle" font-size="17" x="738" y="443">blob id</text><text font-family="Aptos, 'Microsoft YaHei', Arial, sans-serif" fill="#A8B6C6" text-anchor="middle" font-size="17" x="738" y="468">policy hash</text><path d="M868 350H938" stroke="#73F0B8" stroke-width="4" stroke-linecap="round" />
    
  <g transform="translate(908, 336) scale(1.16667)" fill="none" stroke="#73F0B8" stroke-width="2">
    <path d="M5 12l14 0" />
    <path d="M13 18l6 -6" />
    <path d="M13 6l6 6" />
  </g>

    <path fill="#121A24" stroke="#73F0B8" stroke-width="2" d="M956,222 H1134 A10,10 0 0 1 1144,232 V468 A10,10 0 0 1 1134,478 H956 A10,10 0 0 1 946,468 V232 A10,10 0 0 1 956,222 Z" />
    
  <g transform="translate(982, 252) scale(1.41667)" fill="none" stroke="#73F0B8" stroke-width="2">
    <path d="M3 19a2 2 0 1 0 4 0a2 2 0 0 0 -4 0" />
    <path d="M19 7a2 2 0 1 0 0 -4a2 2 0 0 0 0 4" />
    <path d="M11 19h5.5a3.5 3.5 0 0 0 0 -7h-8a3.5 3.5 0 0 1 0 -7h4.5" />
  </g>
    <text x="982" y="326" font-family="'Aptos Display', 'Microsoft YaHei', Arial, sans-serif" font-size="25" font-weight="800" fill="#EAF1F7">Aggregator</text>
    <text x="982" y="356" font-family="'Aptos Display', 'Microsoft YaHei', Arial, sans-serif" font-size="25" font-weight="800" fill="#EAF1F7">read</text>
    <text font-family="Consolas, 'Courier New', monospace" fill="#A8B6C6" font-size="14" x="982" y="404">POST</text><text font-family="Consolas, 'Courier New', monospace" fill="#A8B6C6" font-size="14" x="982" y="428">/api/successor</text><text font-family="Consolas, 'Courier New', monospace" fill="#A8B6C6" font-size="14" x="982" y="452">/restore</text><path d="M1148 350H1214" stroke="#73F0B8" stroke-width="4" stroke-linecap="round" />
    
  <g transform="translate(1184, 336) scale(1.16667)" fill="none" stroke="#73F0B8" stroke-width="2">
    <path d="M5 12l14 0" />
    <path d="M13 18l6 -6" />
    <path d="M13 6l6 6" />
  </g>
  </g>
  <g id="failure-rule">
    <path fill="#121A24" stroke="#F7B955" stroke-width="1.7" d="M194,548 H1086 A10,10 0 0 1 1096,558 V602 A10,10 0 0 1 1086,612 H194 A10,10 0 0 1 184,602 V558 A10,10 0 0 1 194,548 Z" />
    
  <g transform="translate(216, 566) scale(1.16667)" fill="none" stroke="#F7B955" stroke-width="2">
    <path d="M12 9v4" />
    <path d="M10.363 3.591l-8.106 13.534a1.914 1.914 0 0 0 1.636 2.871h16.214a1.914 1.914 0 0 0 1.636 -2.87l-8.106 -13.536a1.914 1.914 0 0 0 -3.274 0" />
    <path d="M12 16h.01" />
  </g>
    <text x="260" y="575" font-family="Aptos, 'Microsoft YaHei', Arial, sans-serif" font-size="19" font-weight="800" fill="#EAF1F7">If Walrus write or read fails, Memory Will does not fake success.</text>
    <text x="260" y="601" font-family="Aptos, 'Microsoft YaHei', Arial, sans-serif" font-size="16" fill="#A8B6C6">The successor is gated on a real storage pointer, not on hidden local state.</text>
  </g>
  <g id="footer">
    <text x="56" y="672" font-family="Aptos, 'Microsoft YaHei', Arial, sans-serif" font-size="16" fill="#A8B6C6">This is why the Walrus primitive changes the product behavior: it is required before restore.</text>
  </g>
</svg>